<svg width="54" height="57" viewBox="0 0 54 57" fill="none" xmlns="http://www.w3.org/2000/svg">
<g clip-path="url(#clip0_303_81)">
<path d="M10.9448 38.7629H11.3593C13.143 38.7803 14.9274 38.7629 16.7098 38.824C18.5183 38.8922 20.3068 39.2297 22.0167 39.8256C23.7679 40.4246 25.591 40.6835 27.4452 40.6855C30.4388 40.6883 33.4324 40.6883 36.426 40.6855C37.3586 40.6855 38.1033 41.1624 38.4294 41.9536C38.9303 43.1697 38.1296 44.5599 36.8225 44.7362C36.6512 44.7556 36.4788 44.7635 36.3065 44.7598C33.2212 44.7598 30.136 44.7515 27.0494 44.7647C25.4301 44.7716 23.9407 45.2318 22.6281 46.1966C22.4576 46.3148 22.3001 46.451 22.1583 46.6026C21.9511 46.8393 21.9455 47.1059 22.139 47.3613C22.2225 47.4813 22.3478 47.5653 22.4902 47.5967C22.6325 47.628 22.7814 47.6045 22.9072 47.5306C23.0601 47.4285 23.2077 47.3185 23.3493 47.201C24.4774 46.375 25.7562 46.0106 27.1357 46.0057C30.232 45.9953 33.329 46.0057 36.4253 46.0057C38.1365 46.0057 39.4318 44.9327 39.78 43.2488C39.7984 43.1819 39.8305 43.1195 39.8741 43.0656C39.9177 43.0117 39.972 42.9675 40.0335 42.9358C43.6406 41.4287 47.2508 39.9297 50.8643 38.4388C51.1741 38.3097 51.5064 38.2438 51.8418 38.2449C52.1772 38.246 52.509 38.314 52.818 38.445C53.4349 38.6935 53.9102 39.094 53.9924 39.8138C54.0767 40.5551 53.763 41.1249 53.1758 41.5365C52.4968 42.0126 51.7942 42.4575 51.1034 42.9143L34.482 53.867C34.1642 54.0752 33.8395 54.2751 33.5301 54.4917C31.8465 55.6904 30.02 55.9548 28.0207 55.4794C22.4747 54.1606 16.9191 52.88 11.3648 51.5966C11.0374 51.521 10.9344 51.3995 10.9358 51.0559C10.9496 47.1114 10.9448 43.1676 10.9448 39.2238V38.7629Z" fill="#CE136C"/>
<path d="M0 33.8772H5.31524V57.0022H0V33.8772Z" fill="#CE136C"/>
<path d="M6.59668 55.0893V35.5007H7.3711C7.83188 35.5007 8.29197 35.5007 8.75276 35.5007C9.35101 35.5056 9.68399 35.8394 9.70057 36.4461C9.70057 36.5155 9.70057 36.5849 9.70057 36.6543C9.70057 42.4245 9.69896 48.1942 9.69574 53.9635C9.69574 54.1891 9.69919 54.4646 9.57968 54.6284C9.43253 54.8304 9.16518 55.0525 8.9379 55.0692C8.17384 55.1233 7.40219 55.0893 6.59668 55.0893Z" fill="#CE136C"/>
<path d="M43.6223 6.00602C43.6223 7.48304 43.6181 8.96007 43.6223 10.4371C43.632 13.0011 42.7242 15.1819 40.9281 16.9976C40.8388 17.1019 40.7815 17.2299 40.7629 17.3662C40.6144 18.2324 40.5702 19.1285 40.3215 19.9635C39.6928 22.0797 38.164 23.2083 36.0467 23.5602C34.7341 23.7782 33.4339 23.699 32.1718 23.2278C32.1231 23.2143 32.0722 23.2107 32.0221 23.2174C31.972 23.2241 31.9238 23.2408 31.8803 23.2666C31.2475 23.6734 30.5822 23.8129 29.8492 23.5852C29.7357 23.5488 29.6136 23.5494 29.5003 23.5868C29.3871 23.6242 29.2885 23.6965 29.2185 23.7934C28.2725 24.9567 27.3284 26.1221 26.3861 27.2896C26.2293 27.4839 26.2721 27.6484 26.4973 27.849C27.4265 28.6764 27.7139 29.9132 27.2227 31.0259C27.1325 31.2332 27.0165 31.4282 26.8773 31.6061C26.0739 32.6153 25.2607 33.619 24.4504 34.6199C24.266 34.8482 24.0359 34.9537 23.7423 34.8746C23.2477 34.7399 23.0985 34.1999 23.4425 33.7696C24.0642 32.9908 24.6943 32.2183 25.3202 31.443C25.4832 31.241 25.6504 31.0418 25.81 30.8371C26.3205 30.1846 26.2341 29.3476 25.5972 28.82C24.9395 28.2759 24.2784 27.7361 23.6138 27.2007C22.9347 26.6517 22.1023 26.7385 21.5572 27.4291C20.7123 28.5008 19.8792 29.5808 19.0405 30.6594C18.9272 30.8051 18.8153 30.9516 18.7006 31.096C18.4139 31.4576 18.0326 31.5325 17.7204 31.2896C17.4081 31.0467 17.3812 30.6427 17.6727 30.2672C18.5666 29.1169 19.4617 27.967 20.3579 26.8176C20.484 26.6504 20.6198 26.4909 20.7648 26.3401C21.7361 25.3635 23.1945 25.2524 24.3088 26.0624C24.6038 26.2776 24.7378 26.2623 24.963 25.9847C25.8611 24.879 26.7516 23.7692 27.6531 22.6676C27.8852 22.3844 27.9115 22.1124 27.7394 21.7896C27.4631 21.2697 27.4265 20.7193 27.5964 20.155C27.8464 19.3457 28.1927 18.5697 28.6278 17.8437C28.7144 17.7063 28.7512 17.5431 28.732 17.3816C28.7127 17.2202 28.6386 17.0703 28.5222 16.9574C26.7654 15.1833 25.8597 13.0503 25.8576 10.5412C25.8539 7.31832 25.8567 4.09566 25.8659 0.87323C25.8653 0.650565 25.9358 0.433567 26.0669 0.254099C26.4276 -0.187342 27.1343 -0.0193721 27.3104 0.531735C27.3478 0.669129 27.3646 0.811374 27.3602 0.953747C27.3602 4.15072 27.3602 7.34816 27.3602 10.5461C27.3555 11.5131 27.538 12.4719 27.8976 13.3689C27.9667 13.5466 28.0835 13.6466 28.2817 13.6063C28.4683 13.5653 28.5311 13.4293 28.527 13.2495C28.527 13.1912 28.527 13.1322 28.527 13.0739C28.5774 11.6622 28.7004 10.2587 29.1239 8.90246C29.7131 7.01662 30.8737 5.58471 32.6471 4.7289C34.4204 3.87309 36.723 4.13129 38.4984 5.8908C39.6654 7.02793 40.4194 8.52523 40.64 10.1435C40.7878 11.1624 40.8472 12.1938 40.9419 13.2204C40.9578 13.3904 40.9764 13.5452 41.1622 13.5987C41.3826 13.6625 41.5077 13.5473 41.5836 13.3495C41.9258 12.4908 42.1043 11.5751 42.1101 10.6502V7.35186C42.1101 5.19532 42.1038 3.03809 42.1197 0.881559C42.1277 0.651179 42.2047 0.428591 42.3408 0.243C42.5246 -0.00270788 42.8168 -0.0512935 43.1145 0.0528199C43.261 0.106251 43.3875 0.20391 43.4765 0.332404C43.5656 0.460899 43.6129 0.613932 43.6119 0.770506C43.6195 1.31606 43.6119 1.86161 43.6119 2.40717L43.6223 6.00602ZM39.6293 14.2796C39.6362 12.9851 39.5878 11.6962 39.353 10.4197C39.1561 9.34598 38.8466 8.31942 38.1247 7.46291C37.9748 7.28522 37.8173 7.17001 37.5865 7.26788C37.3558 7.36574 37.342 7.5698 37.3585 7.79608C37.4912 9.62708 37.666 11.4574 37.7316 13.2905C37.823 15.8066 37.6959 18.326 37.3516 20.82C37.3205 21.0435 37.3392 21.2427 37.572 21.3523C37.8048 21.462 37.952 21.3329 38.1012 21.1865C38.5903 20.7048 38.9696 20.1342 39.0863 19.4658C39.2853 18.3233 39.4138 17.167 39.5416 16.0127C39.6065 15.4387 39.603 14.8591 39.6327 14.2796H39.6293ZM28.8289 20.7214C28.8199 21.9624 30.0917 22.7398 31.0499 22.2081C31.9936 21.6834 32.8004 20.9852 33.5161 20.1786C33.8015 19.8573 33.7579 19.5061 33.4105 19.2194C32.7196 18.6516 32.027 18.086 31.3324 17.5224C30.967 17.2253 30.6202 17.2662 30.3439 17.6445C29.8001 18.3776 29.3601 19.1827 29.0361 20.037C28.938 20.3015 28.8717 20.5777 28.8289 20.7214Z" fill="#CE136C"/>
<path d="M40.3589 27.3749C41.3822 27.3749 42.2117 26.5415 42.2117 25.5134C42.2117 24.4853 41.3822 23.6519 40.3589 23.6519C39.3356 23.6519 38.5061 24.4853 38.5061 25.5134C38.5061 26.5415 39.3356 27.3749 40.3589 27.3749Z" fill="#CE136C"/>
<path d="M26.9762 38.3965C27.4428 38.3965 27.8211 38.0164 27.8211 37.5476C27.8211 37.0788 27.4428 36.6987 26.9762 36.6987C26.5096 36.6987 26.1313 37.0788 26.1313 37.5476C26.1313 38.0164 26.5096 38.3965 26.9762 38.3965Z" fill="#CE136C"/>
<path d="M12.6263 30.3172C14.0097 30.3172 15.1312 29.1904 15.1312 27.8005C15.1312 26.4105 14.0097 25.2837 12.6263 25.2837C11.2428 25.2837 10.1213 26.4105 10.1213 27.8005C10.1213 29.1904 11.2428 30.3172 12.6263 30.3172Z" fill="#CE136C"/>
</g>
<defs>
<clipPath id="clip0_303_81">
<rect width="54" height="57" fill="white"/>
</clipPath>
</defs>
</svg>
